# xmcd
#
# Track frame offsets:
# 150
# 18248
# 34372
# 48618
# 65624
# 84367
# 99385
# 115593
# 132017
# 147898
# 161335
# 176699
# 194895
# 208424
# 224120
# 240004
#
# Disc length: 3405 seconds
#
#
# Revision: 6
# Processed by: cddbd v1.5.2PL0 Copyright (c) Steve Scherf et al.
# Submitted via: FreeRIP 2.942 
#
DISCID=e70d4b10
DTITLE=Eduardo Costa - Cada Dia Eu Te Quero Mais
DYEAR=0
DGENRE=Country
TTITLE0=A Carta
TTITLE1=Melhor ou Pior
TTITLE2=Cachaceiro
TTITLE3=Eu Aposto
TTITLE4=Esquecer é Nosso Jeito
TTITLE5=Solidão Por Perto
TTITLE6=Você Foi Atriz-Part Bruno&MArrone
TTITLE7=Cada Dia Eu Te Quero Mais
TTITLE8=Casa Solidão
TTITLE9=Ta Bombando
TTITLE10=Eu Quebrei a Cara
TTITLE11=Vai Viver a Sua Vida
TTITLE12=Comigo a Fila Anda
TTITLE13=Presente De Deus
TTITLE14=Primeiro De Abril
TTITLE15=Anjo Loiro
EXTD=
EXTT0=
EXTT1=
EXTT2=
EXTT3=
EXTT4=
EXTT5=
EXTT6=
EXTT7=
EXTT8=
EXTT9=
EXTT10=
EXTT11=
EXTT12=
EXTT13=
EXTT14=
EXTT15=
PLAYORDER=
